<svg width="278" height="297" viewBox="0 0 278 297" fill="none" xmlns="http://www.w3.org/2000/svg">
<g clip-path="url(#clip0_1624_8123)">
<path d="M185.818 252.612C177.485 248.51 168.017 246.24 158.003 246.072L156.604 230.083L137.952 231.715L139.39 248.153C130.909 250.242 123.183 253.831 116.569 258.67C127.052 264.481 139.303 267.29 152.124 266.165C164.936 265.044 176.502 260.151 185.815 252.615L185.818 252.612Z" fill="#FACCAC"/>
<path d="M156.604 230.079L137.951 231.711L139.194 245.921C142.362 246.128 145.587 246.1 148.844 245.812C151.925 245.542 154.931 245.053 157.85 244.362L156.6 230.079L156.604 230.079Z" fill="#F0B38A"/>
<path d="M170.5 247.418C165.381 254.104 158.854 258.277 151.49 258.921C144.119 259.566 136.963 256.59 130.753 250.892C120.945 254.751 112.486 260.785 106.086 268.515C118.562 280.075 135.587 286.369 153.755 284.775C171.914 283.187 187.576 274.03 197.849 260.487C190.204 253.985 180.83 249.512 170.5 247.415L170.5 247.418Z" fill="#0063AE"/>
<path d="M70.1785 181.129C70.1785 181.129 65.6901 168.456 66.8444 152.528C65.9608 155.279 60.8005 156.688 60.8005 156.688C60.8005 156.688 59.0206 131.689 70.0094 114.786C71.479 112.528 67.5012 104.498 71.9836 100.193C71.9797 103.65 74.5239 110.173 78.0694 105.783C81.6153 101.397 97.8165 89.3711 110.199 91.4586C107.512 86.4936 98.697 86.6244 98.697 86.6244C98.697 86.6244 106.044 81.9581 114.252 88.3752C116.783 81.377 125.74 79.6884 125.74 79.6884C125.74 79.6884 121.939 83.425 124.767 86.8287C131.801 82.134 159.075 72.7031 184.413 91.0741C184.279 85.7188 182.299 83.3338 182.299 83.3338C182.299 83.3338 191.334 87.625 189.765 94.3963C194.844 90.4644 200.702 95.0892 200.702 95.0892C200.702 95.0892 191.266 95.163 194.658 99.2483C210.007 106.635 221.753 119.035 222.858 141.141C221.471 139.129 218.976 138.898 218.976 138.898C218.976 138.898 220.884 155.734 216.44 169.785C200.906 174.638 70.171 181.123 70.171 181.123L70.1785 181.129Z" fill="#7D3800"/>
<path d="M82.8144 188.788C85.9443 224.483 115.88 245.8 150.249 242.786C184.617 239.772 210.389 213.571 207.259 177.873C204.129 142.181 173.853 116.975 139.481 119.989C105.112 122.999 79.6814 153.097 82.8144 188.788Z" fill="#FACCAC"/>
<path d="M176.436 156.01C169.713 153.88 168.064 161.292 172.561 161.452C177.389 161.611 181.373 163.5 181.988 163.056C183.354 162.074 180.216 157.207 176.436 156.01Z" fill="#7D3800"/>
<path d="M107.835 162.224C114.002 158.799 117.09 165.734 112.713 166.785C108.015 167.903 104.487 170.547 103.795 170.232C102.262 169.541 104.362 164.147 107.834 162.221L107.835 162.224Z" fill="#7D3800"/>
<path d="M139.556 193.806C139.476 193.813 139.395 193.803 139.316 193.775C139.004 193.666 138.839 193.329 138.947 193.017C139.98 190.02 142.246 188.036 144.864 187.839C147.481 187.641 150.021 189.26 151.495 192.065C151.649 192.358 151.538 192.719 151.245 192.87C150.956 193.024 150.594 192.91 150.44 192.621C149.192 190.245 147.091 188.869 144.957 189.028C142.824 189.19 140.955 190.868 140.081 193.405C140 193.635 139.791 193.789 139.563 193.805L139.556 193.806Z" fill="#D2754E"/>
<path d="M151.902 213.377C152.239 216.274 150.251 218.888 147.46 219.216C144.669 219.544 142.13 217.455 141.793 214.557C141.456 211.659 143.444 209.042 146.235 208.718C149.026 208.394 151.565 210.479 151.902 213.38L151.902 213.377Z" fill="#763331"/>
<path d="M92.6898 205.947C93.8835 211.912 100.263 215.204 108.145 214.396C115.751 213.615 122.542 206.767 120.334 201.387C118.237 196.273 114.396 198.764 105.181 196.911C96.2673 195.119 91.4967 199.988 92.6898 205.947Z" fill="#F6B6A2"/>
<path d="M97.5486 202.038C97.6588 202.581 98.3173 202.907 99.0219 202.765C99.7227 202.62 100.207 202.07 100.101 201.529C99.991 200.992 99.3323 200.663 98.6271 200.798C97.9227 200.943 97.4456 201.497 97.5451 202.038L97.5486 202.038Z" fill="#FAD9CE"/>
<path d="M200.023 196.128C199.887 202.214 194.18 206.563 186.274 207.14C178.651 207.692 170.771 202.13 172.008 196.449C173.181 191.046 177.396 192.831 186.149 189.403C194.616 186.09 200.16 190.057 200.023 196.128Z" fill="#F6B6A2"/>
<path d="M194.559 193.122C194.545 193.677 193.953 194.111 193.235 194.098C192.519 194.077 191.947 193.619 191.961 193.067C191.972 192.517 192.564 192.078 193.282 192.092C194.001 192.113 194.57 192.575 194.559 193.126L194.559 193.122Z" fill="#FAD9CE"/>
<path d="M172.702 91.1763C132.048 76.526 108.509 98.0073 108.509 98.0073C108.509 98.0073 93.0235 94.6667 77.8505 114.706C60.2371 137.962 63.0853 179.508 75.951 193.21C91.3312 186.877 88.8888 154.227 88.8888 154.227C94.5161 156.842 111.218 157.543 116.472 155.096C107.489 147.981 108.975 137.231 108.975 137.231C108.975 137.231 120.099 156.689 133.328 154.133C126.462 146.79 128.749 131.077 128.749 131.077C128.749 131.077 144.103 150.938 133.203 164.603C151.235 159.976 155.35 133.532 155.35 133.532C155.35 133.532 163.088 140.534 156.156 152.048C166.926 153.139 172.22 129.342 172.22 129.342C172.22 129.342 179.633 142.897 169.231 151.158C181.284 152.269 186.879 150.69 194.026 145.898C194.531 161.691 202.79 173.582 206.776 179.199C229.464 152.519 211.621 105.199 172.709 91.1757L172.702 91.1763Z" fill="#7D3800"/>
<path d="M68.1183 152.852C68.1183 152.852 67.2571 168.869 72.9913 182.812C77.7105 185.312 83.1659 184.372 83.1659 184.372C83.1659 184.372 87.9859 167.894 86.6829 155.189C81.9711 172.705 74.2532 171.375 68.1186 152.856L68.1183 152.852Z" fill="#601F00"/>
<path d="M216.313 139.1C216.313 139.1 219.091 154.896 215.082 169.426C210.699 172.476 205.171 172.197 205.171 172.197C205.171 172.197 198.403 156.42 198.17 143.646C204.953 160.469 212.455 158.222 216.316 139.1L216.313 139.1Z" fill="#601F00"/>
<path d="M158.282 125.142C170.179 123.314 143.73 101.56 143.73 101.56C143.73 101.56 176.945 126.015 189.529 119.756C202.118 113.496 149.76 96.9985 149.76 96.9985C149.76 96.9985 175.681 104.372 179.944 103.964C186.316 103.351 173.354 92.0106 147.584 90.2346C121.815 88.4585 118.447 99.6893 120.854 104.167C128.416 118.228 152.182 126.076 158.278 125.142L158.282 125.142ZM100.41 132.777C91.7914 137.033 99.124 110.683 99.124 110.683C99.124 110.683 88.6009 141.899 77.4977 143.57C66.3946 145.241 93.0868 110.463 93.0868 110.463C93.0868 110.463 79.5082 127.164 76.5303 128.852C72.0832 131.371 75.366 118.011 91.4084 105.045C107.45 92.0751 114.801 97.8781 115.279 101.912C116.777 114.576 104.824 130.599 100.406 132.781L100.41 132.777Z" fill="#9C5205"/>
<path d="M87.3312 186.072C87.3312 186.072 85.7493 177.658 76.8743 176.948C67.5128 176.208 64.6251 189.349 70.1514 197.574C75.6796 205.782 86.1353 206.656 88.9172 199.824L87.3315 186.075L87.3312 186.072Z" fill="#FACCAC"/>
<path d="M75.2971 180.758C81.2655 179.237 86.8477 191.442 79.022 198.27C81.9891 189.337 78.6577 186.468 74.5584 190.854C74.4466 187.985 75.8525 186.111 79.5098 186.261C79.0159 182.486 75.3005 180.758 75.3005 180.758L75.2971 180.758Z" fill="#E19365"/>
<path d="M204.243 175.822C204.243 175.822 204.336 167.262 212.953 165.018C222.043 162.66 227.172 175.1 223.165 184.156C219.149 193.198 209.005 195.882 205.075 189.637L204.239 175.822L204.243 175.822Z" fill="#FACCAC"/>
<path d="M215.168 168.497C209.026 168.038 205.656 181.031 214.547 186.389C210.071 178.11 212.853 174.703 217.652 178.307C217.264 175.466 215.557 173.864 211.982 174.647C211.813 170.844 215.168 168.497 215.168 168.497Z" fill="#E19365"/>
<path d="M125.034 177.322C127.924 183.303 125.698 190.372 120.052 193.108C114.409 195.84 107.475 193.213 104.578 187.232C101.681 181.245 103.91 174.179 109.552 171.441C115.209 168.704 122.129 171.339 125.037 177.322L125.034 177.322Z" fill="#F0B38A"/>
<path d="M122.468 189.172C126.215 189.192 127.229 190.799 124.745 192.767C122.243 194.722 117.177 196.293 113.437 196.269C109.683 196.246 108.672 194.636 111.159 192.671C113.657 190.709 118.714 189.149 122.471 189.172L122.468 189.172Z" fill="#F0B38A"/>
<path d="M123.841 177.695C126.704 183.605 124.503 190.592 118.924 193.3C113.341 196.002 106.489 193.403 103.626 187.49C100.762 181.569 102.967 174.589 108.543 171.88C114.13 169.181 120.978 171.781 123.841 177.691L123.841 177.695Z" fill="white"/>
<path d="M122.732 178.982C122.163 177.81 121.396 176.805 120.518 175.956C120.921 176.502 121.285 177.086 121.599 177.724C124.114 182.923 122.174 189.069 117.265 191.451C114.347 192.862 111.048 192.594 108.312 191.079C111.201 193.381 115.112 194.045 118.502 192.411C123.302 190.077 125.199 184.067 122.735 178.982L122.732 178.982Z" fill="#E1E1E1"/>
<path d="M124.195 180.072C124.432 183.619 121.909 186.683 118.556 186.911C115.203 187.134 112.291 184.441 112.054 180.894C111.809 177.338 114.336 174.28 117.685 174.053C121.042 173.825 123.954 176.522 124.199 180.072L124.195 180.072Z" fill="#79B6E4"/>
<path d="M123.089 179.281C123.23 181.406 121.716 183.237 119.716 183.377C117.706 183.512 115.967 181.899 115.823 179.771C115.682 177.646 117.189 175.816 119.196 175.679C121.203 175.545 122.945 177.157 123.089 179.285L123.089 179.281Z" fill="#1D1D1B"/>
<path d="M118.804 177.296C118.866 178.199 118.223 178.969 117.375 179.026C116.528 179.083 115.793 178.402 115.728 177.503C115.67 176.606 116.306 175.83 117.153 175.767C118.002 175.72 118.743 176.4 118.804 177.296Z" fill="white"/>
<path d="M123.217 181.696C123.258 182.243 122.867 182.709 122.348 182.747C121.836 182.781 121.385 182.365 121.351 181.818C121.321 181.278 121.701 180.806 122.217 180.771C122.729 180.737 123.176 181.15 123.213 181.693L123.217 181.696Z" fill="white"/>
<path d="M162.491 174.045C160.683 180.437 164.105 187.012 170.137 188.726C176.173 190.436 182.545 186.645 184.356 180.252C186.173 173.853 182.748 167.282 176.715 165.565C170.669 163.852 164.312 167.649 162.487 174.045L162.491 174.045Z" fill="#F0B38A"/>
<path d="M167.078 185.269C163.388 185.94 162.668 187.698 165.459 189.204C168.263 190.696 173.525 191.363 177.204 190.69C180.901 190.015 181.617 188.254 178.822 186.751C176.022 185.252 170.771 184.594 167.078 185.269Z" fill="#F0B38A"/>
<path d="M163.733 174.204C161.94 180.522 165.321 187.02 171.286 188.719C177.253 190.411 183.549 186.661 185.342 180.34C187.138 174.012 183.75 167.521 177.789 165.822C171.818 164.134 165.526 167.883 163.733 174.201L163.733 174.204Z" fill="white"/>
<path d="M165.048 175.28C165.405 174.027 165.986 172.904 166.703 171.915C166.401 172.523 166.144 173.162 165.95 173.844C164.375 179.401 167.353 185.116 172.601 186.61C175.72 187.492 178.922 186.655 181.353 184.688C178.908 187.457 175.172 188.79 171.55 187.77C166.417 186.305 163.505 180.716 165.048 175.28Z" fill="#E1E1E1"/>
<path d="M172.801 175.089C173.183 178.623 176.2 181.202 179.542 180.844C182.883 180.482 185.283 177.324 184.904 173.79C184.528 170.244 181.508 167.672 178.17 168.03C174.825 168.389 172.425 171.547 172.801 175.089Z" fill="#79B6E4"/>
<path d="M176.655 173.864C176.886 175.981 178.694 177.521 180.688 177.308C182.691 177.091 184.127 175.201 183.896 173.081C183.665 170.964 181.863 169.423 179.863 169.636C177.863 169.853 176.428 171.743 176.655 173.864Z" fill="#1D1D1B"/>
<path d="M176.805 170.812C176.901 171.709 177.668 172.359 178.509 172.268C179.354 172.176 179.96 171.378 179.867 170.482C179.768 169.589 179.008 168.935 178.163 169.019C177.319 169.121 176.706 169.919 176.802 170.812L176.805 170.812Z" fill="white"/>
<path d="M181.026 176.367C181.08 176.912 181.546 177.303 182.06 177.251C182.571 177.196 182.942 176.711 182.881 176.163C182.816 175.626 182.36 175.227 181.846 175.282C181.336 175.338 180.964 175.823 181.025 176.364L181.026 176.367Z" fill="white"/>
<path d="M264.484 132.132C263.364 138.854 259.829 143.329 253.877 145.556C249.412 147.196 246.808 149.174 246.06 151.492C245.877 152.099 245.704 152.71 245.549 153.322C245.265 153.858 244.729 154.058 243.948 153.928C241.221 153.471 239.237 153.31 237.995 153.433C237.741 153.473 237.543 153.483 237.409 153.46C236.438 153.298 236.172 151.894 236.616 149.248C237 146.952 238.803 144.333 242.026 141.389C245.25 138.448 247.053 135.826 247.44 133.529C248.023 130.046 246.462 127.997 242.764 127.381C240.415 126.988 237.21 127.397 233.153 128.605C231.991 128.41 231.988 124.871 233.136 117.99C233.262 117.234 233.397 116.676 233.543 116.308C234.222 114.564 236.711 113.536 241.007 113.226C244.127 112.998 247.074 113.116 249.854 113.58C254.739 114.395 258.562 116.434 261.319 119.698C264.239 123.156 265.294 127.3 264.488 132.132L264.484 132.132ZM247.695 165.128C247.348 167.209 246.325 168.882 244.63 170.151C242.931 171.42 241.043 171.885 238.966 171.538C236.886 171.191 235.252 170.14 234.062 168.389C232.867 166.634 232.446 164.722 232.793 162.642C233.14 160.565 234.158 158.909 235.85 157.679C237.538 156.449 239.425 156.009 241.505 156.352C243.582 156.7 245.221 157.729 246.422 159.441C247.619 161.153 248.046 163.051 247.699 165.128L247.695 165.128Z" fill="#61C2D8"/>
<path d="M153.13 25.0413C153.607 31.839 151.212 37.0153 145.944 40.567C141.984 43.2037 139.911 45.7344 139.723 48.1629C139.685 48.7963 139.664 49.4281 139.653 50.0625C139.499 50.6503 139.029 50.9698 138.237 51.0252C135.48 51.2177 133.512 51.5187 132.333 51.9316C132.095 52.029 131.905 52.084 131.77 52.0957C130.787 52.1643 130.203 50.8614 130.014 48.184C129.853 45.8626 130.996 42.8946 133.443 39.2799C135.895 35.6684 137.038 32.7004 136.876 30.3755C136.631 26.8537 134.636 25.2218 130.897 25.4863C128.523 25.6522 125.501 26.7937 121.834 28.9175C120.661 28.9992 119.831 25.5599 119.344 18.5961C119.291 17.8315 119.293 17.2536 119.346 16.866C119.598 15.0132 121.781 13.43 125.889 12.1273C128.869 11.1809 131.763 10.6075 134.576 10.4101C139.516 10.0649 143.708 11.1565 147.149 13.6887C150.795 16.37 152.79 20.1564 153.13 25.0413ZM144.494 61.0414C144.64 63.1449 144.038 65.011 142.687 66.6398C141.333 68.2723 139.605 69.1614 137.501 69.3071C135.398 69.4563 133.563 68.8128 131.997 67.387C130.428 65.9615 129.571 64.1953 129.425 62.0919C129.279 59.9918 129.883 58.143 131.241 56.552C132.595 54.9612 134.325 54.0928 136.429 53.947C138.532 53.8013 140.365 54.4206 141.93 55.8047C143.493 57.1925 144.352 58.9342 144.498 61.0377L144.494 61.0414Z" fill="#61C2D8"/>
<path d="M45.7205 148.588C47.5988 155.138 46.3346 160.699 41.9207 165.269C38.5951 168.672 37.095 171.577 37.4177 173.992C37.511 174.621 37.6213 175.245 37.7416 175.864C37.7144 176.469 37.3191 176.883 36.5583 177.099C33.8996 177.861 32.0401 178.566 30.9724 179.213C30.7588 179.357 30.5861 179.452 30.4538 179.492C29.5064 179.762 28.6643 178.611 27.9234 176.03C27.2821 173.793 27.7838 170.655 29.4277 166.609C31.0719 162.567 31.5732 159.425 30.9354 157.187C29.9634 153.795 27.6708 152.614 24.0684 153.65C21.7799 154.306 19.0611 156.051 15.9194 158.891C14.7889 159.216 13.2599 156.022 11.3367 149.317C11.126 148.58 11.0071 148.016 10.9798 147.625C10.8408 145.758 12.6464 143.758 16.3933 141.631C19.1121 140.084 21.8227 138.921 24.5323 138.145C29.2925 136.778 33.6224 136.977 37.5144 138.735C41.6384 140.599 44.3731 143.889 45.7249 148.598L45.7205 148.588ZM44.7571 185.595C45.3382 187.622 45.1363 189.571 44.152 191.45C43.1644 193.329 41.6603 194.557 39.6332 195.138C37.6061 195.719 35.6772 195.474 33.8504 194.405C32.0201 193.336 30.8161 191.788 30.2316 189.761C29.6508 187.738 29.8611 185.805 30.8558 183.967C31.8506 182.129 33.3634 180.922 35.3905 180.341C37.4176 179.759 39.3377 179.985 41.1578 181.016C42.9744 182.047 44.1766 183.575 44.7577 185.602L44.7571 185.595Z" fill="#61C2D8"/>
</g>
<defs>
<clipPath id="clip0_1624_8123">
<rect width="254.484" height="275" fill="white" transform="translate(0.000976562 22.1802) rotate(-5)"/>
</clipPath>
</defs>
</svg>
