<?xml version="1.0" encoding="UTF-8"?><svg id="Ebene_1" xmlns="http://www.w3.org/2000/svg" viewBox="0 0 138.84 163.14"><defs><style>.cls-1{fill:#eda80a;}.cls-2{fill:none;opacity:.8;stroke:#fff;stroke-linecap:round;stroke-miterlimit:10;stroke-width:2px;}.cls-3{fill:#e28100;}</style></defs><path class="cls-3" d="M96.74,87.45c-1.25-1.84-2.55-3.45-3.91-4.87l40.62,62.41c3.68,5.66-.38,13.14-7.13,13.14h-18.13c-2.16,0-4.03-.15-5.6-.45-1.49-.3-2.8-.75-3.92-1.34-.78-.42-1.46-.91-2.1-1.43l.83,1.28c.75,1.12,1.53,2.13,2.35,3.02,.82,.82,1.79,1.53,2.91,2.13,1.12,.6,2.43,1.04,3.92,1.34,1.57,.3,3.43,.45,5.6,.45h18.13c6.75,0,10.81-7.49,7.13-13.14l-40.71-62.55Z"/><path class="cls-3" d="M33.85,55.01c0,2.64,1.69,4.87,4.04,5.7-.03-.23-.04-.46-.04-.7V8.5c0-3.19-1.76-5.96-4.35-7.42,.23,.77,.35,1.58,.35,2.42V55.01Z"/><path class="cls-3" d="M51.31,90.06c-2.02-.9-4.78-1.34-8.29-1.34h-3.14c-3.34,0-6.05,2.71-6.05,6.05v54.87c0,4.7-3.81,8.5-8.5,8.5H4.5c-1.51,0-2.92-.4-4.15-1.08,1.04,3.52,4.29,6.08,8.15,6.08H29.34c4.7,0,8.5-3.81,8.5-8.5v-54.87c0-3.34,2.71-6.05,6.05-6.05h3.14c3.51,0,6.27,.45,8.29,1.34,.9,.35,1.73,.83,2.49,1.42l-1.34-2.05c-1.34-2.09-3.06-3.55-5.15-4.37Z"/><path class="cls-3" d="M128.05,8.53l-38.44,52.42c-1.29,1.71-2.62,3.25-3.99,4.6-2.71,2.69-2.42,7.17,.56,9.56l.07,.06c.58,.47,1.15,.97,1.71,1.51-.55-2.12-.02-4.46,1.66-6.13,1.37-1.35,2.7-2.89,3.99-4.6L132.05,13.53c3.2-4.37,1.48-10.11-2.72-12.46,.73,2.4,.43,5.12-1.28,7.46Z"/><g><path class="cls-1" d="M90.18,80.11l.07,.06c.88,.71,1.74,1.53,2.58,2.41l-.09-.13c-1.51-2.24-3.1-4.16-4.78-5.77,.34,1.3,1.08,2.52,2.22,3.43Z"/><path class="cls-1" d="M102.59,157.69c1.57,.3,3.43,.45,5.6,.45h18.13c6.75,0,10.81-7.49,7.13-13.14l-40.62-62.41c-.84-.88-1.7-1.7-2.58-2.41l-.07-.06c-1.14-.91-1.88-2.13-2.22-3.43-.56-.54-1.13-1.04-1.71-1.51l-.07-.06c-2.98-2.39-3.28-6.87-.56-9.56,1.37-1.35,2.7-2.89,3.99-4.6L128.05,8.53c1.71-2.33,2-5.06,1.28-7.46-1.2-.67-2.59-1.08-4.14-1.08h-16.14c-3.73,0-6.87,.56-9.41,1.68-2.46,1.05-4.78,2.99-6.94,5.82L55.98,60.8c-2.46,3.51-6.49,5.26-12.09,5.26h0c-3.1,0-5.66-2.34-6-5.35-2.35-.83-4.04-3.06-4.04-5.7V3.5c0-.84-.13-1.65-.35-2.42-1.23-.69-2.64-1.08-4.15-1.08H8.5C3.81,0,0,3.81,0,8.5V154.63c0,.84,.13,1.65,.35,2.42,1.23,.69,2.64,1.08,4.15,1.08H25.34c4.7,0,8.5-3.81,8.5-8.5v-54.87c0-3.34,2.71-6.05,6.05-6.05h3.14c3.51,0,6.27,.45,8.29,1.34,2.09,.82,3.81,2.28,5.15,4.37l1.34,2.05c1.01,.78,1.9,1.76,2.66,2.95l36.12,55.49c.64,.52,1.32,1.02,2.1,1.43,1.12,.6,2.43,1.04,3.92,1.34Z"/></g><path class="cls-2" d="M7.35,5.46s-2.89-.39-2.89,3.61V114.62"/><path class="cls-2" d="M105.74,4.62c-7.13,.46-9.84,6.84-9.84,6.84l-20.61,30.95"/><path class="cls-2" d="M54.38,89.86c7.13,.46,9.84,6.84,9.84,6.84l15.92,23.92"/><path class="cls-2" d="M7.35,156.47s-2.89,.39-2.89-3.61v-9.54"/><path class="cls-2" d="M110.4,156.44s-5.38,.74-8.36-2.53c-2.7-2.95-6.06-9.09-6.06-9.09"/></svg>